<svg xmlns="http://www.w3.org/2000/svg" xmlns:xlink="http://www.w3.org/1999/xlink" width="321.733" height="407.404" viewBox="0 0 321.733 407.404"><defs><style>.a{fill:#0eb0ff;}.b{fill:url(#c);}.c{filter:url(#a);}</style><filter id="a" x="0" y="0" width="321.733" height="407.404" filterUnits="userSpaceOnUse"><feGaussianBlur stdDeviation="15"></feGaussianBlur></filter><linearGradient id="c" x1="0.5" y1="3.015" x2="0.5" y2="-0.03" gradientUnits="objectBoundingBox"><stop offset="0" stop-color="#fff"></stop><stop offset="1" stop-color="#fff2f4"></stop></linearGradient></defs><g transform="translate(-16 -7.133)"><g transform="translate(61 42.133)"><g class="c" transform="matrix(1, 0, 0, 1, -45, -35)"><path class="a" d="M282.2,377.4H71.533A10.527,10.527,0,0,1,61,366.871V70.533A10.527,10.527,0,0,1,71.533,60H282.2a10.527,10.527,0,0,1,10.533,10.533V366.871A10.527,10.527,0,0,1,282.2,377.4Z" transform="translate(-16 -25)"></path></g></g><g transform="translate(103.133 106.737)"><path class="b" d="M191.533,215.2a10.5,10.5,0,0,0,7.447-3.086l42.133-42.133a10.532,10.532,0,0,0-14.895-14.895l-42.133,42.133a10.534,10.534,0,0,0,7.448,17.981Z" transform="translate(-138.867 -152)"></path><circle class="b" cx="10.533" cy="10.533" r="10.533" transform="translate(42.133 0)"></circle><circle class="b" cx="10.533" cy="10.533" r="10.533" transform="translate(84.266 42.133)"></circle><path class="b" d="M131.533,293.067h126.4a10.533,10.533,0,1,0,0-21.067h-126.4a10.533,10.533,0,0,0,0,21.067Z" transform="translate(-121 -187.733)"></path><path class="b" d="M293.667,332H251.533a10.533,10.533,0,0,0,0,21.067h42.133a10.533,10.533,0,0,0,0-21.067Z" transform="translate(-156.733 -205.6)"></path><path class="b" d="M173.667,332H131.533a10.533,10.533,0,0,0,0,21.067h42.133a10.533,10.533,0,0,0,0-21.067Z" transform="translate(-121 -205.6)"></path><path class="b" d="M173.667,392H131.533a10.533,10.533,0,1,0,0,21.067h42.133a10.533,10.533,0,0,0,0-21.067Z" transform="translate(-121 -223.467)"></path><path class="b" d="M293.667,392H251.533a10.533,10.533,0,1,0,0,21.067h42.133a10.533,10.533,0,1,0,0-21.067Z" transform="translate(-156.733 -223.467)"></path></g></g></svg>