<svg xmlns="http://www.w3.org/2000/svg" xmlns:xlink="http://www.w3.org/1999/xlink" width="428" height="344.842" viewBox="0 0 428 344.842"><defs><style>.a{fill:#d9d9e2;}.b{fill:#f6f9f9;}.c{fill:#ff6326;}.d{fill:#fff16b;}.e{fill:#ffd321;}.f{fill:#595959;}.g{filter:url(#a);}</style><filter id="a" x="0" y="0" width="428" height="336" filterUnits="userSpaceOnUse"><feGaussianBlur stdDeviation="15"></feGaussianBlur></filter></defs><g transform="translate(45 13.413)"><g class="g" transform="matrix(1, 0, 0, 1, -45, -13.41)"><rect class="a" width="338" height="246" rx="18" transform="translate(45 35)"></rect></g><path class="b" d="M305.917,105.656a14.165,14.165,0,0,1-14.149-14.149V81.591H94.07v9.916a14.165,14.165,0,0,1-14.149,14.149H70V224.6h9.916A14.165,14.165,0,0,1,94.07,238.752v9.916h197.7v-9.916A14.165,14.165,0,0,1,305.917,224.6h9.916V105.656Z" transform="translate(-23.727 -20.338)"></path><path class="b" d="M368.937,105.656a14.165,14.165,0,0,1-14.149-14.149V81.591H255.939V248.668h98.849v-9.916A14.165,14.165,0,0,1,368.937,224.6h9.916V105.656Z" transform="translate(-86.747 -20.338)"></path><path class="c" d="M203.734,344.822v96.162l34.51-19.174,34.51,19.174V344.82Z" transform="translate(-69.053 -109.556)"></path><path class="c" d="M290.448,440.984V344.82h-34.51V421.81Z" transform="translate(-86.747 -109.556)"></path><circle class="d" cx="36.352" cy="36.352" r="36.352" transform="translate(132.839 182.062)"></circle><path class="d" d="M255.938,264.339v72.7a36.352,36.352,0,0,0,0-72.7Z" transform="translate(-86.747 -82.278)"></path><path class="e" d="M232.216,341.876a46.268,46.268,0,1,1,46.268-46.268,46.32,46.32,0,0,1-46.268,46.268Zm0-72.7a26.436,26.436,0,1,0,26.436,26.436A26.466,26.466,0,0,0,232.216,269.172Z" transform="translate(-63.025 -77.194)"></path><g transform="translate(99.78 99.597)"><path class="f" d="M150.938,139.594H289.761v19.832H150.938Z" transform="translate(-150.938 -139.594)"></path></g><g transform="translate(128.425 135.297)"><path class="f" d="M194.271,193.6H275.8V213.43H194.271Z" transform="translate(-194.271 -193.598)"></path></g><path class="f" d="M255.938,139.594H325.35v19.832H255.938Z" transform="translate(-86.747 -39.997)"></path><path class="f" d="M255.938,193.6H296.7V213.43H255.938Z" transform="translate(-86.747 -58.301)"></path><path class="e" d="M255.938,249.34v19.832a26.436,26.436,0,1,1,0,52.872v19.832a46.268,46.268,0,1,0,0-92.536Z" transform="translate(-86.747 -77.194)"></path></g></svg>