<svg xmlns="http://www.w3.org/2000/svg" xmlns:xlink="http://www.w3.org/1999/xlink" id="Layer_1" x="0px" y="0px" viewBox="0 0 322.1 359.9" style="enable-background:new 0 0 322.1 359.9;" xml:space="preserve"><style type="text/css">	.st0{fill:#666666;}	.st1{fill:#F9F6ED;}	.st2{fill:#7F7E7D;}	.st3{fill:#0EB0FF;}	.st4{fill:#FFC30A;}	.st5{fill:#E0D5BD;}	.st6{fill:#FE3F4E;}	.st7{fill:#E6E6E6;}	.st8{fill:#CCCCCC;}	.st9{fill:#50D1DC;}</style><g transform="translate(-35.723 0.001)">	<path class="st0" d="M206.2,358c13.5-4.7,22.5-17.4,22.5-31.7V33.6c0-18.5-15-33.6-33.5-33.6H69.3C50.7,0,35.7,15.1,35.7,33.6v253  C74.9,340.2,140.5,367.7,206.2,358z"></path>	<path class="st1" d="M195.2,18.6h-17.3c-2.2,0-4,1.8-4,4c0,0,0,0,0,0v5.1c0,4.8-3.9,8.7-8.7,8.7h-66c-4.8,0-8.6-3.9-8.7-8.7v-3.6  c0-3.1-2.5-5.6-5.6-5.6c0,0,0,0,0,0H69.3c-8.3,0-15,6.7-15,15c0,0,0,0,0,0v274.5c13.2,13.1,28.4,24.1,45,32.5h95.8  c8.3,0,15-6.7,15-15c0,0,0,0,0,0v-292C210.1,25.3,203.4,18.6,195.2,18.6z"></path>	<g transform="translate(103.313 13.19)">		<path class="st2" d="M50.7,10.8H22.4c-3,0-5.4-2.4-5.4-5.4S19.4,0,22.4,0h28.2c3,0,5.4,2.4,5.4,5.4S53.7,10.8,50.7,10.8L50.7,10.8   z"></path>		<path class="st2" d="M2.4,9.9c-2.5-1.7-3.1-5-1.5-7.5s5-3.1,7.5-1.5c2.5,1.7,3.1,5,1.5,7.5c-0.8,1.2-2,2-3.4,2.3   C5.1,10.8,3.7,10.5,2.4,9.9z"></path>	</g>	<path class="st3" d="M89.1,324.9H74.6c-1.3,0-2.4-1.1-2.4-2.4V308c0-1.3,1.1-2.4,2.4-2.4h14.5c1.3,0,2.4,1.1,2.4,2.4v14.5  C91.5,323.8,90.4,324.9,89.1,324.9z"></path>	<path class="st4" d="M123.2,324.9h-14.5c-1.3,0-2.4-1.1-2.4-2.4V308c0-1.3,1.1-2.4,2.4-2.4h14.5c1.3,0,2.4,1.1,2.4,2.4v14.5  C125.6,323.8,124.5,324.9,123.2,324.9z"></path>	<path class="st5" d="M157.3,324.9h-14.5c-1.3,0-2.4-1.1-2.4-2.4V308c0-1.3,1.1-2.4,2.4-2.4h14.5c1.3,0,2.4,1.1,2.4,2.4v14.5  C159.7,323.8,158.6,324.9,157.3,324.9z"></path>	<path class="st6" d="M191.4,324.9h-14.5c-1.3,0-2.4-1.1-2.4-2.4V308c0-1.3,1.1-2.4,2.4-2.4h14.5c1.3,0,2.4,1.1,2.4,2.4v14.5  C193.8,323.8,192.7,324.9,191.4,324.9z"></path></g><g transform="translate(-58.313 -59.604)">			<image style="overflow:visible;opacity:0.1;" width="377" height="274" transform="matrix(1 0 0 1 57.313 99.528)">	</image>	<g>		<g>			<g transform="translate(103.313 94.604)">				<g transform="matrix(1, 0, 0, 1, -45, -35)">					<path class="st3" d="M322.1,238.7v-95.2l0,0v-13.2l0,0v-30c0-4-3.3-7.2-7.2-7.2H73.2c-4,0-7.2,3.3-7.2,7.2v30l0,0v26.5l0,0v82      c0,4,3.3,7.2,7.2,7.2h241.6C318.9,246,322.1,242.7,322.1,238.7z"></path>				</g>			</g>			<path class="st6" d="M320.8,273.9c-5.5-9.6-3.1-21.8,5.7-28.6c-9.7-7.5-23.6-5.6-31,4s-5.6,23.6,4,31c8,6.1,19,6.1,27,0    C324.2,278.6,322.3,276.4,320.8,273.9z"></path>			<path class="st4" d="M359.1,251.8c-6.1-10.6-19.6-14.2-30.1-8.1c-0.9,0.5-1.7,1-2.4,1.6c9.7,7.4,11.5,21.3,4.1,31    c-1.2,1.5-2.6,2.9-4.1,4.1c9.7,7.4,23.6,5.6,31-4.1C362.9,269.2,363.5,259.5,359.1,251.8L359.1,251.8z"></path>			<path class="st7" d="M154,269.8h16.3c3.8,0,7-3.1,7-7c0-3.8-3.1-7-7-7H154c-3.8,0-7,3.1-7,7C147,266.7,150.1,269.8,154,269.8z"></path>			<path class="st8" d="M159,262.8c0-3.8,3.1-7,7-7h-12c-3.8,0-7,3.1-7,7c0,3.8,3.1,7,7,7h12C162.1,269.8,159,266.7,159,262.8z"></path>			<path class="st7" d="M196,269.8h16.3c3.8,0,7-3.1,7-7c0-3.8-3.1-7-7-7H196c-3.8,0-7,3.1-7,7C189.1,266.7,192.2,269.8,196,269.8z"></path>			<path class="st8" d="M201.1,262.8c0-3.8,3.1-7,7-7h-12c-3.8,0-7,3.1-7,7c0,3.8,3.1,7,7,7h12C204.2,269.8,201.1,266.7,201.1,262.8    z"></path>			<path class="st7" d="M238.1,269.8h16.3c3.8,0,7-3.1,7-7c0-3.8-3.1-7-7-7h-16.3c-3.8,0-7,3.1-7,7    C231.1,266.7,234.2,269.8,238.1,269.8z"></path>			<path class="st8" d="M243.1,262.8c0-3.8,3.1-7,7-7h-12c-3.8,0-7,3.1-7,7c0,3.8,3.1,7,7,7h12C246.2,269.8,243.1,266.7,243.1,262.8    z"></path>			<path class="st4" d="M183.2,210.7h-29.4c-3.8,0-6.8-3.1-6.9-6.9v-14.6c0-3.8,3.1-6.8,6.9-6.9h29.4c3.8,0,6.8,3.1,6.9,6.9v14.6    C190.1,207.6,187,210.7,183.2,210.7z"></path>			<path class="st9" d="M362.1,168.4c-2.6,0-4.7,2.1-4.7,4.7V222c0,2.6,2.1,4.7,4.7,4.8c2.6,0,4.7-2.1,4.8-4.7c0,0,0,0,0,0v-48.9    C366.8,170.5,364.7,168.4,362.1,168.4z"></path>		</g>	</g></g></svg>